<?xml version="1.0" encoding="UTF-8"?>
<svg id="Layer_1" data-name="Layer 1" xmlns="http://www.w3.org/2000/svg" version="1.1" viewBox="0 0 20 20">
  <defs>
    <style>
      .cls-1 {
        fill: #0f7fe3;
        stroke-width: 0px;
      }
    </style>
  </defs>
  <path class="cls-1" d="M7.65,16.04c-3.89,0-7.05-3.18-7.03-7.06.01-3.88,3.17-7.03,7.05-7.02,3.89,0,7.05,3.17,7.03,7.06-.01,3.88-3.17,7.03-7.05,7.02ZM4.73,12.14c-.01.51.47.84.96.64.61-.25,1.2-.52,1.81-.77.09-.04.22-.04.31,0,.61.25,1.21.52,1.81.77.5.21,1-.15.95-.68-.06-.65-.13-1.31-.18-1.96,0-.1.03-.22.09-.3.4-.47.81-.94,1.23-1.41.46-.52.28-1.08-.4-1.23-.61-.14-1.21-.27-1.81-.42-.09-.02-.2-.1-.25-.18-.33-.54-.65-1.09-.98-1.63-.32-.54-.91-.54-1.24,0-.33.54-.65,1.09-.98,1.63-.05.08-.16.16-.25.18-.6.15-1.2.28-1.79.41-.7.16-.88.7-.41,1.24.41.46.81.93,1.22,1.38.09.11.12.21.1.34-.07.66-.12,1.32-.19,1.98Z"/>
  <path class="cls-1" d="M9.75,17.13c2.45-.7,4.28-2.14,5.41-4.4,1.13-2.25,1.16-4.57.27-6.92,1.39.18,3.35,2.45,3.8,4.4.6,2.61-.45,5.28-2.66,6.76-2.2,1.47-4.94,1.34-6.82.16Z"/>
</svg>
